<svg xmlns="http://www.w3.org/2000/svg" version="1.1" xmlns:xlink="http://www.w3.org/1999/xlink" xmlns:svgjs="http://svgjs.dev/svgjs" width="1000" height="623" viewBox="0 0 1000 623"><g transform="matrix(1,0,0,1,-0.6060606060606233,0.2522267206477409)"><svg viewBox="0 0 396 247" data-background-color="#0d0d0d" preserveAspectRatio="xMidYMid meet" height="623" width="1000" xmlns="http://www.w3.org/2000/svg" xmlns:xlink="http://www.w3.org/1999/xlink"><defs></defs><g id="tight-bounds" transform="matrix(1,0,0,1,0.2400000000000091,-0.09999999999999432)"><svg viewBox="0 0 395.52 247.2" height="247.2" width="395.52"><g><svg></svg></g><g><svg viewBox="0 0 395.52 247.2" height="247.2" width="395.52"><g><path d="M62.247 90.124h28.495c9.213 0 15.769 1.621 19.669 4.863 1.697 1.423 3.023 3.229 3.979 5.421h31.2l-0.75 4.82-29.822-3.165c0.605 1.852 0.985 3.938 1.14 6.257l-22.309 0c-0.162-0.119-0.34-0.221-0.536-0.307-1.143-0.5-2.928-0.75-5.356-0.749h-8.463l-0.183 1.056-20.266 0zM109.463 141.543l43.626 0-0.857 4.821-42.904-4.554c-1.553 3.036-3.334 5.554-5.345 7.553-5.185 5.142-13.526 7.713-25.024 7.713h-28.495l3.202-18.195 20.334 0-0.183 1.056h8.463c2.785 0 4.856-0.336 6.213-1.007 0.031-0.016 0.063-0.032 0.093-0.049l22.102 0c-0.391 0.927-0.799 1.815-1.225 2.662zM48.107 151.934l-0.857 4.821-45.421-4.821zM57.105 100.408l-0.75 4.82-45.42-4.82zM49.928 141.543l-0.857 4.821-45.421-4.821zM58.926 90.124l-0.857 4.82-45.313-4.82zM197.546 107.263h-14.783l-0.184 1.057-20.354 0 0.184-1.057h-14.676l3.106-17.139h49.813l-0.377 2.079-19.548-2.079h46.171l-0.857 4.82-25.766-2.741-1.487 8.205h26.289l-0.75 4.82-25.914-2.75zM176.791 141.543h41.108l-0.857 4.821-40.345-4.282-1.716 9.852h41.097l-0.857 4.821-40.334-4.281-0.802 4.602h-20.353l3.169-18.195 20.354 0zM151.268 151.934l-0.857 4.821-45.421-4.821zM147.411 90.124l-0.857 4.82-45.313-4.82zM230.219 90.124h28.495c9.213 0 15.769 1.621 19.668 4.863 1.697 1.423 3.023 3.229 3.979 5.421h35.914l-1.178 4.82-34.285-3.682c0.709 1.978 1.148 4.236 1.317 6.774l-22.309 0c-0.162-0.119-0.34-0.221-0.535-0.307-1.143-0.5-2.928-0.75-5.356-0.75h-8.463l-0.184 1.057-20.266 0zM277.435 141.543h31.199l-1.178 4.821-30.83-3.295c-1.389 2.48-2.946 4.578-4.671 6.294-0.951 0.944-2.009 1.801-3.174 2.571h37.389l-1.071 4.821-37.632-4.013c-5.072 2.89-11.917 4.334-20.537 4.334h-28.495l3.203-18.195 20.334 0-0.184 1.056h8.463c2.785 0 4.856-0.336 6.213-1.007 0.031-0.016 0.063-0.032 0.094-0.049h22.101c-0.391 0.927-0.799 1.815-1.224 2.662zM320.632 90.124l-1.071 4.82-44.886-4.82zM329.523 157.076h-21.21l4.25-18.195 20.864 0zM323.953 90.124h26.567l1.03 18.196-31.848 0zM367.124 90.124h26.567l-2.154 18.196-31.852 0zM385.764 157.076h-21.318l2.522-18.195 20.95 0zM354.805 157.076h-15.533l-1.261-18.195 24.3 0z" fill="#12da53" data-fill-palette-color="tertiary"></path></g><g transform="matrix(1,0,0,1,0,111.77160076705323)"><svg viewBox="0 0 395.52 23.656798465893523" height="23.656798465893523" width="395.52"><g><svg viewBox="0 0 395.52 23.656798465893523" height="23.656798465893523" width="395.52"><g><svg viewBox="0 0 395.52 23.656798465893523" height="23.656798465893523" width="395.52"><g><svg viewBox="0 0 395.52 23.656798465893523" height="23.656798465893523" width="395.52"><g><svg viewBox="0 0 395.52 23.656798465893523" height="23.656798465893523" width="395.52"><g><svg viewBox="0 0 395.52 23.656798465893523" height="23.656798465893523" width="395.52"><g transform="matrix(1,0,0,1,0,0)"><svg width="395.52" viewBox="-12.5 -32 547.510009765625 32.75" height="23.656798465893523" data-palette-color="#ffffff"><path d="M15.7-31.25L29-31.25Q35.45-31.25 38.18-28.98 40.9-26.7 40.9-21.6L40.9-21.6Q40.9-19 40.3-15.6L40.3-15.6Q38.8-7.2 35.18-3.6 31.55 0 23.5 0L23.5 0 10.2 0 15.7-31.25ZM27.7-23.25L27.7-23.25 23.75-23.25 21.1-8 25.05-8Q27-8 27.95-8.47 28.9-8.95 29.2-10.65L29.2-10.65 30.95-20.6Q31-20.9 31-21.4L31-21.4Q31-22.55 30.2-22.9 29.4-23.25 27.7-23.25ZM9.1-2.4L8.7-0.15-12.5-2.4 9.1-2.4ZM10.8-12.05L10.4-9.8-10.8-12.05 10.8-12.05ZM11.65-16.85L11.25-14.6-9.95-16.85 11.65-16.85ZM12.5-21.65L12.1-19.4-9.1-21.65 12.5-21.65ZM13.3-26.45L12.95-24.2-8.25-26.45 13.3-26.45ZM9.95-7.25L9.55-5-11.65-7.25 9.95-7.25ZM14.15-31.25L13.75-29-7.4-31.25 14.15-31.25ZM63.6-4.95L61.65 0 51.65 0 64.8-31.25 79.5-31.25 81.7 0 71.65 0 71.45-4.95 63.6-4.95ZM66.7-12.9L70.7-12.9 70.7-21.65 70.2-21.65 66.7-12.9ZM51-2.4L50.05-0.2 29.55-2.4 51-2.4ZM53.05-7.25L52.1-5.05 31.6-7.25 53.05-7.25ZM55.05-12.05L54.15-9.85 33.65-12.05 55.05-12.05ZM57.1-16.85L56.15-14.65 35.7-16.85 57.1-16.85ZM59.1-21.65L58.2-19.45 37.75-21.65 59.1-21.65ZM63.15-31.25L62.25-29.1 41.85-31.25 63.15-31.25ZM61.1-26.45L60.2-24.3 39.8-26.45 61.1-26.45ZM41.85-31.25L62.25-29.1 63.15-31.25 41.85-31.25ZM96.65-2.4L96.25-0.15 75.1-2.4 96.65-2.4ZM97.45-7.25L97.1-5 75.95-7.25 97.45-7.25ZM97-12.05L97.45-9.8 76.25-12.05 97-12.05ZM96.05-16.85L96.5-14.6 75.3-16.85 96.05-16.85ZM73.45-26.45L94.15-26.45 94.6-24.2 73.45-26.45ZM74.4-21.65L95.1-21.65 95.55-19.4 74.4-21.65ZM93.25-31.25L93.7-29 72.55-31.25 93.25-31.25ZM94.75-31.25L105.25-31.25 105.9-20.25 106.25-20.25 110.85-31.25 121.35-31.25 108.75-8.5 107.3 0 97.8 0 99.25-8.5 94.75-31.25ZM165.54-31.25L164.09-23.25 157.19-23.25 153.14 0 143.64 0 147.69-23.25 140.84-23.25 142.29-31.25 165.54-31.25ZM142.49-2.4L142.09-0.15 120.89-2.4 142.49-2.4ZM144.19-12.05L143.79-9.8 122.59-12.05 144.19-12.05ZM145.04-16.85L144.64-14.6 123.44-16.85 145.04-16.85ZM145.89-21.65L145.49-19.4 124.29-21.65 145.89-21.65ZM143.34-7.25L142.94-5 121.74-7.25 143.34-7.25ZM139.84-26.45L139.49-24.2 118.29-26.45 139.84-26.45ZM140.69-31.25L140.29-29 119.14-31.25 140.69-31.25ZM183.44-7.8L187.39-7.8Q189.34-7.8 190.29-8.28 191.24-8.75 191.54-10.45L191.54-10.45 193.84-23.45 189.84-23.45Q187.94-23.45 186.99-22.98 186.04-22.5 185.74-20.8L185.74-20.8 183.44-7.8ZM191.49-32L191.49-32Q197.84-32 200.54-29.53 203.24-27.05 203.24-21.9 203.24-16.75 201.61-11.13 199.99-5.5 196.46-2.38 192.94 0.75 186.16 0.75 179.39 0.75 176.69-1.73 173.99-4.2 173.99-9.35L173.99-9.35Q173.99-11.8 174.69-15.83 175.39-19.85 176.54-22.78 177.69-25.7 179.64-27.85L179.64-27.85Q183.39-32 191.49-32ZM173.39-16.85L173.24-15.85Q173.14-15.45 173.04-14.75L173.04-14.75 153.39-16.85 173.39-16.85ZM152.84-12.05L172.69-12.05Q172.54-10.9 172.54-9.95L172.54-9.95 152.84-12.05ZM154.59-21.65L174.59-21.65 173.99-19.6 154.59-21.65ZM153.49-7.25L172.59-7.25Q172.79-5.85 172.94-5.15L172.94-5.15 153.49-7.25ZM156.94-26.45L176.64-26.45Q175.94-25.15 175.64-24.45L175.64-24.45 156.94-26.45ZM158.29-2.4L174.09-2.4Q174.74-1.25 175.59-0.55L175.59-0.55 158.29-2.4ZM163.84-31.25L181.39-31.25Q179.94-30.35 179.14-29.6L179.14-29.6 163.84-31.25ZM230.08-31.25L243.38-31.25Q249.83-31.25 252.56-28.98 255.28-26.7 255.28-21.6L255.28-21.6Q255.28-19 254.68-15.6L254.68-15.6Q253.18-7.2 249.56-3.6 245.93 0 237.88 0L237.88 0 224.58 0 230.08-31.25ZM242.08-23.25L242.08-23.25 238.13-23.25 235.48-8 239.43-8Q241.38-8 242.33-8.47 243.28-8.95 243.58-10.65L243.58-10.65 245.33-20.6Q245.38-20.9 245.38-21.4L245.38-21.4Q245.38-22.55 244.58-22.9 243.78-23.25 242.08-23.25ZM223.48-2.4L223.08-0.15 201.88-2.4 223.48-2.4ZM225.18-12.05L224.78-9.8 203.58-12.05 225.18-12.05ZM226.03-16.85L225.63-14.6 204.43-16.85 226.03-16.85ZM226.88-21.65L226.48-19.4 205.28-21.65 226.88-21.65ZM227.68-26.45L227.33-24.2 206.13-26.45 227.68-26.45ZM224.33-7.25L223.93-5 202.73-7.25 224.33-7.25ZM228.53-31.25L228.13-29 206.98-31.25 228.53-31.25ZM277.98-4.95L276.03 0 266.03 0 279.18-31.25 293.88-31.25 296.08 0 286.03 0 285.83-4.95 277.98-4.95ZM281.08-12.9L285.08-12.9 285.08-21.65 284.58-21.65 281.08-12.9ZM265.38-2.4L264.43-0.2 243.93-2.4 265.38-2.4ZM267.43-7.25L266.48-5.05 245.98-7.25 267.43-7.25ZM269.43-12.05L268.53-9.85 248.03-12.05 269.43-12.05ZM271.48-16.85L270.53-14.65 250.08-16.85 271.48-16.85ZM273.48-21.65L272.58-19.45 252.13-21.65 273.48-21.65ZM277.53-31.25L276.63-29.1 256.23-31.25 277.53-31.25ZM275.48-26.45L274.58-24.3 254.18-26.45 275.48-26.45ZM256.23-31.25L276.63-29.1 277.53-31.25 256.23-31.25ZM311.03-2.4L310.63-0.15 289.48-2.4 311.03-2.4ZM311.83-7.25L311.48-5 290.33-7.25 311.83-7.25ZM311.38-12.05L311.83-9.8 290.63-12.05 311.38-12.05ZM310.43-16.85L310.88-14.6 289.68-16.85 310.43-16.85ZM287.83-26.45L308.53-26.45 308.98-24.2 287.83-26.45ZM288.78-21.65L309.48-21.65 309.93-19.4 288.78-21.65ZM307.63-31.25L308.08-29 286.93-31.25 307.63-31.25ZM309.13-31.25L319.63-31.25 320.28-20.25 320.63-20.25 325.23-31.25 335.73-31.25 323.13-8.5 321.68 0 312.18 0 313.63-8.5 309.13-31.25ZM350.77-2.4L350.27-0.15 329.17-2.4 350.77-2.4ZM351.92-7.25L351.37-5 330.32-7.25 351.92-7.25ZM353.02-12.05L352.52-9.8 331.47-12.05 353.02-12.05ZM354.17-16.85L353.62-14.6 332.62-16.85 354.17-16.85ZM355.27-21.65L354.77-19.4 333.77-21.65 355.27-21.65ZM356.42-26.45L355.87-24.2 334.92-26.45 356.42-26.45ZM357.52-31.25L357.02-29 336.07-31.25 357.52-31.25ZM364.92-15.15L361.67 0 351.77 0 359.07-31.25 371.47-31.25 372.37-15.35 372.72-15.35 379.22-31.25 391.62-31.25 387.92 0 377.97 0 380.07-15.15 379.72-15.15 373.47 0 366.22 0 365.17-15.15 364.92-15.15ZM412.62-7.8L416.57-7.8Q418.52-7.8 419.47-8.28 420.42-8.75 420.72-10.45L420.72-10.45 423.02-23.45 419.02-23.45Q417.12-23.45 416.17-22.98 415.22-22.5 414.92-20.8L414.92-20.8 412.62-7.8ZM420.67-32L420.67-32Q427.02-32 429.72-29.53 432.42-27.05 432.42-21.9 432.42-16.75 430.8-11.13 429.17-5.5 425.64-2.38 422.12 0.75 415.34 0.75 408.57 0.75 405.87-1.73 403.17-4.2 403.17-9.35L403.17-9.35Q403.17-11.8 403.87-15.83 404.57-19.85 405.72-22.78 406.87-25.7 408.82-27.85L408.82-27.85Q412.57-32 420.67-32ZM402.57-16.85L402.42-15.85Q402.32-15.45 402.22-14.75L402.22-14.75 382.57-16.85 402.57-16.85ZM382.02-12.05L401.87-12.05Q401.72-10.9 401.72-9.95L401.72-9.95 382.02-12.05ZM383.77-21.65L403.77-21.65 403.17-19.6 383.77-21.65ZM382.67-7.25L401.77-7.25Q401.97-5.85 402.12-5.15L402.12-5.15 382.67-7.25ZM386.12-26.45L405.82-26.45Q405.12-25.15 404.82-24.45L404.82-24.45 386.12-26.45ZM387.47-2.4L403.27-2.4Q403.92-1.25 404.77-0.55L404.77-0.55 387.47-2.4ZM393.02-31.25L410.57-31.25Q409.12-30.35 408.32-29.6L408.32-29.6 393.02-31.25ZM447.47-0.15L426.27-2.4 447.32-2.4 447.47-0.15ZM447.17-5L425.97-7.25 447.02-7.25 447.17-5ZM446.02-24.2L424.82-26.45 445.87-26.45 446.02-24.2ZM446.27-19.4L425.12-21.65 446.17-21.65 446.27-19.4ZM445.72-29L424.57-31.25 445.62-31.25 445.72-29ZM446.57-14.6L425.42-16.85 446.42-16.85 446.57-14.6ZM446.87-9.8L425.72-12.05 446.72-12.05 446.87-9.8ZM447.12-31.25L457.67-31.25 457.67-11.4 458.12-11.4 465.67-31.25 475.72-31.25 462.87 0 448.97 0 447.12-31.25ZM492.91 0L483.41 0 488.91-31.25 498.41-31.25 492.91 0ZM482.31-2.4L481.91-0.15 460.71-2.4 482.31-2.4ZM484.01-12.05L483.61-9.8 462.41-12.05 484.01-12.05ZM484.86-16.85L484.46-14.6 463.26-16.85 484.86-16.85ZM485.71-21.65L485.31-19.4 464.11-21.65 485.71-21.65ZM486.51-26.45L486.16-24.2 464.96-26.45 486.51-26.45ZM483.16-7.25L482.76-5 461.56-7.25 483.16-7.25ZM487.36-31.25L486.96-29 465.81-31.25 487.36-31.25ZM530.96-19.05L529.66-11.8 520.16-11.8 519.51-8 531.16-8 529.76 0 508.61 0 514.11-31.25 535.01-31.25 532.41-23.25 522.16-23.25 521.46-19.05 530.96-19.05ZM507.51-2.4L507.11-0.15 485.91-2.4 507.51-2.4ZM509.21-12.05L508.81-9.8 487.61-12.05 509.21-12.05ZM510.06-16.85L509.66-14.6 488.46-16.85 510.06-16.85ZM510.91-21.65L510.51-19.4 489.31-21.65 510.91-21.65ZM511.71-26.45L511.36-24.2 490.16-26.45 511.71-26.45ZM508.36-7.25L507.96-5 486.76-7.25 508.36-7.25ZM512.56-31.25L512.16-29 491.01-31.25 512.56-31.25Z" opacity="1" transform="matrix(1,0,0,1,0,0)" fill="#ffffff" class="undefined-text-0" data-fill-palette-color="primary" id="text-0"></path></svg></g></svg></g></svg></g></svg></g><g></g></svg></g></svg></g></svg></g></svg></g></svg><rect width="395.52" height="247.2" fill="none" stroke="none" visibility="hidden"></rect></g></svg></g></svg>